<?xml version="1.0" encoding="UTF-8"?>
<svg width="54px" height="54px" viewBox="0 0 54 54" version="1.1" xmlns="http://www.w3.org/2000/svg" xmlns:xlink="http://www.w3.org/1999/xlink">
    <title>iconTarif</title>
    <g id="v2" stroke="none" stroke-width="1" fill="none" fill-rule="evenodd">
        <g id="Round-2" transform="translate(-20, -2166)" fill-rule="nonzero">
            <path d="M47,2220 C61.9116882,2220 74,2207.91169 74,2193 C74,2178.08831 61.9116882,2166 47,2166 C32.0883118,2166 20,2178.08831 20,2193 C20,2207.91169 32.0883118,2220 47,2220 Z" id="Oval" fill="#FFFFFF"></path>
            <path d="M47,2179 C49.7633654,2179 52.3397369,2179.80062 54.5098095,2181.18254 L53.0280362,2182.62166 C51.2566748,2181.59058 49.1973056,2181 47,2181 C40.372583,2181 35,2186.37258 35,2193 C35,2199.62742 40.372583,2205 47,2205 C53.627417,2205 59,2199.62742 59,2193 C59,2190.77462 58.3942392,2188.69073 57.3386143,2186.90422 L58.7919014,2185.45021 C60.1895089,2187.62859 61,2190.21964 61,2193 C61,2200.73199 54.7319865,2207 47,2207 C39.2680135,2207 33,2200.73199 33,2193 C33,2185.26801 39.2680135,2179 47,2179 Z M47.1127156,2185.992 C48.4334704,2185.992 49.4712062,2186.27502 50.2259232,2186.87879 C51.018376,2187.50143 51.4334704,2188.44483 51.4334704,2189.70898 C51.4334704,2190.27502 51.3013949,2190.78445 51.0561119,2191.27502 L52.3957345,2191.27502 L52.3957345,2192.5203 L49.9806402,2192.5203 L49.9617722,2192.53917 C49.6032817,2192.80332 48.8296968,2193.21842 47.6598854,2193.78445 L52.3957345,2193.78445 L52.3957345,2195.02974 L45.5655458,2195.02974 C45.1127156,2195.44483 44.9051685,2195.85992 44.9051685,2196.31275 C44.9051685,2196.91653 45.0749798,2197.36936 45.4146024,2197.67125 C45.7542251,2197.992 46.3013949,2198.16181 47.018376,2198.16181 C48.3579987,2198.16181 49.1127156,2197.4637 49.282527,2196.06747 L51.4146024,2196.06747 C51.263659,2197.40709 50.7919609,2198.40709 50.0372439,2199.06747 C49.3013949,2199.67125 48.3013949,2199.992 47.018376,2199.992 C45.6032817,2199.992 44.5466779,2199.69011 43.8296968,2199.10521 C43.0749798,2198.50143 42.7164892,2197.57691 42.7164892,2196.33162 C42.7164892,2195.84106 42.7919609,2195.40709 42.9429043,2195.02974 L41.7353571,2195.02974 L41.7353571,2193.78445 L43.773093,2193.78445 L43.8863005,2193.69011 C44.2259232,2193.38823 44.8863005,2193.01087 45.8863005,2192.5203 L41.7353571,2192.5203 L41.7353571,2191.27502 L48.2447911,2191.27502 L48.3817583,2191.1674 C48.4041202,2191.15133 48.427181,2191.13665 48.4523383,2191.12408 C48.9617722,2190.70898 49.2259232,2190.23728 49.2259232,2189.67125 C49.2259232,2188.992 49.0561119,2188.50143 48.7164892,2188.23728 C48.3579987,2187.95426 47.8296968,2187.82219 47.1127156,2187.82219 C45.7542251,2187.82219 44.9995081,2188.5203 44.8485647,2189.91653 L42.7164892,2189.91653 C42.8674326,2188.55804 43.3202628,2187.55804 44.1127156,2186.91653 C44.8296968,2186.29389 45.8296968,2185.992 47.1127156,2185.992 Z" id="Shape" fill="#0FC992"></path>
        </g>
    </g>
</svg>