<?xml version="1.0" encoding="UTF-8"?>
<svg width="54px" height="54px" viewBox="0 0 54 54" version="1.1" xmlns="http://www.w3.org/2000/svg" xmlns:xlink="http://www.w3.org/1999/xlink">
    <title>iconLike_hover</title>
    <g id="v2" stroke="none" stroke-width="1" fill="none" fill-rule="evenodd">
        <g id="Round-2" transform="translate(-86, -2240)" fill-rule="nonzero">
            <path d="M113,2240 C127.911688,2240 140,2252.08831 140,2267 C140,2281.91169 127.911688,2294 113,2294 C98.0883118,2294 86,2281.91169 86,2267 C86,2252.08831 98.0883118,2240 113,2240 Z" id="Path" fill="#0FC992"></path>
            <path d="M115.5,2255 C116.880712,2255 118,2256.11929 118,2257.5 L117.999551,2263 L121.783322,2263 C123.381003,2263 124.686983,2264.24892 124.77823,2265.82373 L124.783322,2266 C124.783322,2266.1979 124.763741,2266.39531 124.724863,2266.58935 L123.344038,2273.48124 C122.917854,2275.60839 120.873731,2277.00807 118.736413,2276.63625 L109.445724,2275.02057 C109.206204,2276.15143 108.202199,2277 107,2277 L104,2277 C102.619288,2277 101.5,2275.88071 101.5,2274.5 L101.5,2263.5 C101.5,2262.11929 102.619288,2261 104,2261 L107,2261 C108.209682,2261 109.218694,2261.85917 109.450107,2263.00057 L110.839551,2263 L111.957783,2257.03928 C112.168931,2255.91315 113.115437,2255.08234 114.24433,2255.00577 L114.414963,2255 L115.5,2255 Z M107,2263 L104,2263 C103.723858,2263 103.5,2263.22386 103.5,2263.5 L103.5,2274.5 C103.5,2274.77614 103.723858,2275 104,2275 L107,2275 C107.276142,2275 107.5,2274.77614 107.5,2274.5 L107.5,2263.5 C107.5,2263.22386 107.276142,2263 107,2263 Z M115.5,2257 L114.414963,2257 C114.174356,2257 113.967868,2257.17137 113.923527,2257.40786 L112.652946,2264.18429 C112.564264,2264.65726 112.151289,2265 111.670074,2265 L109.503551,2265 L109.503551,2273 L119.079198,2274.66584 C120.147857,2274.85176 121.169919,2274.15191 121.383011,2273.08834 L122.763836,2266.19645 C122.776795,2266.13177 122.783322,2266.06597 122.783322,2266 C122.783322,2265.44772 122.335607,2265 121.783322,2265 L116,2265 L116,2257.5 C116,2257.22386 115.776142,2257 115.5,2257 Z" id="Shape" fill="#FFFFFF"></path>
        </g>
    </g>
</svg>