<?xml version="1.0" encoding="UTF-8"?>
<svg width="54px" height="54px" viewBox="0 0 54 54" version="1.1" xmlns="http://www.w3.org/2000/svg" xmlns:xlink="http://www.w3.org/1999/xlink">
    <title>iconLike</title>
    <g id="v2" stroke="none" stroke-width="1" fill="none" fill-rule="evenodd">
        <g id="Round-2" transform="translate(-20, -2240)" fill="#0FC992" fill-rule="nonzero">
            <path d="M49.5,2255 C50.880712,2255 52,2256.11929 52,2257.5 L51.999551,2263 L55.7833223,2263 C57.3810032,2263 58.6869832,2264.24892 58.7782296,2265.82373 L58.7833223,2266 C58.7833223,2266.1979 58.7637406,2266.39531 58.7248633,2266.58935 L57.3440381,2273.48124 C56.9178538,2275.60839 54.8737312,2277.00807 52.7364133,2276.63625 L43.445724,2275.02057 C43.2062038,2276.15143 42.2021992,2277 41,2277 L38,2277 C36.6192881,2277 35.5,2275.88071 35.5,2274.5 L35.5,2263.5 C35.5,2262.11929 36.6192881,2261 38,2261 L41,2261 C42.2096818,2261 43.2186941,2261.85917 43.4501074,2263.00057 L44.839551,2263 L45.9577828,2257.03928 C46.1689314,2255.91315 47.1154367,2255.08234 48.2443304,2255.00577 L48.4149633,2255 L49.5,2255 Z M41,2263 L38,2263 C37.7238576,2263 37.5,2263.22386 37.5,2263.5 L37.5,2274.5 C37.5,2274.77614 37.7238576,2275 38,2275 L41,2275 C41.2761424,2275 41.5,2274.77614 41.5,2274.5 L41.5,2263.5 C41.5,2263.22386 41.2761424,2263 41,2263 Z M49.5000001,2257 L48.4149633,2257 C48.1743557,2257 47.9678684,2257.17137 47.9235272,2257.40786 L46.652946,2264.18429 C46.5642636,2264.65726 46.1512889,2265 45.6700738,2265 L43.503551,2265 L43.503551,2273 L53.0791984,2274.66584 C54.1478574,2274.85176 55.1699186,2274.15191 55.3830108,2273.08834 L56.763836,2266.19645 C56.7767951,2266.13177 56.7833223,2266.06597 56.7833223,2266 C56.7833223,2265.44772 56.3356071,2265 55.7833223,2265 L50.0000001,2265 L50.0000001,2257.5 C50.0000001,2257.22386 49.7761425,2257 49.5000001,2257 Z" id="Shape"></path>
            <path d="M47,2240 C61.9116882,2240 74,2252.08831 74,2267 C74,2281.91169 61.9116882,2294 47,2294 C32.0883118,2294 20,2281.91169 20,2267 C20,2252.08831 32.0883118,2240 47,2240 Z M47,2242 C33.1928813,2242 22,2253.19288 22,2267 C22,2280.80712 33.1928813,2292 47,2292 C60.8071187,2292 72,2280.80712 72,2267 C72,2253.19288 60.8071187,2242 47,2242 Z" id="Oval"></path>
        </g>
    </g>
</svg>