<?xml version="1.0" encoding="UTF-8"?>
<svg width="54px" height="54px" viewBox="0 0 54 54" version="1.1" xmlns="http://www.w3.org/2000/svg" xmlns:xlink="http://www.w3.org/1999/xlink">
    <title>iconDislike_hover</title>
    <g id="v2" stroke="none" stroke-width="1" fill="none" fill-rule="evenodd">
        <g id="Round-2" transform="translate(-86, -2314)" fill-rule="nonzero">
            <path d="M113,2314 C127.911688,2314 140,2326.08831 140,2341 C140,2355.91169 127.911688,2368 113,2368 C98.0883118,2368 86,2355.91169 86,2341 C86,2326.08831 98.0883118,2314 113,2314 Z" id="Path" fill="#0FC992" transform="translate(113, 2341) scale(1, -1) translate(-113, -2341)"></path>
            <path d="M115.5,2331 C116.880712,2331 118,2332.11929 118,2333.5 L117.999551,2339 L121.783322,2339 C123.381003,2339 124.686983,2340.24892 124.77823,2341.82373 L124.783322,2342 C124.783322,2342.1979 124.763741,2342.39531 124.724863,2342.58935 L123.344038,2349.48124 C122.917854,2351.60839 120.873731,2353.00807 118.736413,2352.63625 L109.445724,2351.02057 C109.206204,2352.15143 108.202199,2353 107,2353 L104,2353 C102.619288,2353 101.5,2351.88071 101.5,2350.5 L101.5,2339.5 C101.5,2338.11929 102.619288,2337 104,2337 L107,2337 C108.209682,2337 109.218694,2337.85917 109.450107,2339.00057 L110.839551,2339 L111.957783,2333.03928 C112.168931,2331.91315 113.115437,2331.08234 114.24433,2331.00577 L114.414963,2331 L115.5,2331 Z M107,2339 L104,2339 C103.723858,2339 103.5,2339.22386 103.5,2339.5 L103.5,2350.5 C103.5,2350.77614 103.723858,2351 104,2351 L107,2351 C107.276142,2351 107.5,2350.77614 107.5,2350.5 L107.5,2339.5 C107.5,2339.22386 107.276142,2339 107,2339 Z M115.5,2333 L114.414963,2333 C114.174356,2333 113.967868,2333.17137 113.923527,2333.40786 L112.652946,2340.18429 C112.564264,2340.65726 112.151289,2341 111.670074,2341 L109.503551,2341 L109.503551,2349 L119.079198,2350.66584 C120.147857,2350.85176 121.169919,2350.15191 121.383011,2349.08834 L122.763836,2342.19645 C122.776795,2342.13177 122.783322,2342.06597 122.783322,2342 C122.783322,2341.44772 122.335607,2341 121.783322,2341 L116,2341 L116,2333.5 C116,2333.22386 115.776142,2333 115.5,2333 Z" id="Shape" fill="#FFFFFF" transform="translate(113.1417, 2342) scale(1, -1) translate(-113.1417, -2342)"></path>
        </g>
    </g>
</svg>