<?xml version="1.0" encoding="UTF-8"?>
<svg width="54px" height="54px" viewBox="0 0 54 54" version="1.1" xmlns="http://www.w3.org/2000/svg" xmlns:xlink="http://www.w3.org/1999/xlink">
    <title>iconTarif_hover</title>
    <g id="v2" stroke="none" stroke-width="1" fill="none" fill-rule="evenodd">
        <g id="Round-2" transform="translate(-86, -2166)">
            <circle id="Filled" fill="#0FC992" cx="113" cy="2193" r="27"></circle>
            <path d="M113,2179 C115.763365,2179 118.339737,2179.80062 120.50981,2181.18254 L119.028036,2182.62166 C117.256675,2181.59058 115.197306,2181 113,2181 C106.372583,2181 101,2186.37258 101,2193 C101,2199.62742 106.372583,2205 113,2205 C119.627417,2205 125,2199.62742 125,2193 C125,2190.77462 124.394239,2188.69073 123.338614,2186.90422 L124.791901,2185.45021 C126.189509,2187.62859 127,2190.21964 127,2193 C127,2200.73199 120.731986,2207 113,2207 C105.268014,2207 99,2200.73199 99,2193 C99,2185.26801 105.268014,2179 113,2179 Z M113.112716,2185.992 C114.43347,2185.992 115.471206,2186.27502 116.225923,2186.87879 C117.018376,2187.50143 117.43347,2188.44483 117.43347,2189.70898 C117.43347,2190.27502 117.301395,2190.78445 117.056112,2191.27502 L118.395735,2191.27502 L118.395735,2192.5203 L115.98064,2192.5203 L115.961772,2192.53917 C115.603282,2192.80332 114.829697,2193.21842 113.659885,2193.78445 L118.395735,2193.78445 L118.395735,2195.02974 L111.565546,2195.02974 C111.112716,2195.44483 110.905168,2195.85992 110.905168,2196.31275 C110.905168,2196.91653 111.07498,2197.36936 111.414602,2197.67125 C111.754225,2197.992 112.301395,2198.16181 113.018376,2198.16181 C114.357999,2198.16181 115.112716,2197.4637 115.282527,2196.06747 L117.414602,2196.06747 C117.263659,2197.40709 116.791961,2198.40709 116.037244,2199.06747 C115.301395,2199.67125 114.301395,2199.992 113.018376,2199.992 C111.603282,2199.992 110.546678,2199.69011 109.829697,2199.10521 C109.07498,2198.50143 108.716489,2197.57691 108.716489,2196.33162 C108.716489,2195.84106 108.791961,2195.40709 108.942904,2195.02974 L107.735357,2195.02974 L107.735357,2193.78445 L109.773093,2193.78445 L109.886301,2193.69011 C110.225923,2193.38823 110.886301,2193.01087 111.886301,2192.5203 L107.735357,2192.5203 L107.735357,2191.27502 L114.244791,2191.27502 L114.381758,2191.1674 C114.40412,2191.15133 114.427181,2191.13665 114.452338,2191.12408 C114.961772,2190.70898 115.225923,2190.23728 115.225923,2189.67125 C115.225923,2188.992 115.056112,2188.50143 114.716489,2188.23728 C114.357999,2187.95426 113.829697,2187.82219 113.112716,2187.82219 C111.754225,2187.82219 110.999508,2188.5203 110.848565,2189.91653 L108.716489,2189.91653 C108.867433,2188.55804 109.320263,2187.55804 110.112716,2186.91653 C110.829697,2186.29389 111.829697,2185.992 113.112716,2185.992 Z" id="Shape" fill="#FFFFFF" fill-rule="nonzero"></path>
        </g>
    </g>
</svg>