<?xml version="1.0" encoding="UTF-8"?>
<svg width="54px" height="54px" viewBox="0 0 54 54" version="1.1" xmlns="http://www.w3.org/2000/svg" xmlns:xlink="http://www.w3.org/1999/xlink">
    <title>iconDislike</title>
    <g id="v2" stroke="none" stroke-width="1" fill="none" fill-rule="evenodd">
        <g id="Round-2" transform="translate(-20, -2314)" fill="#0FC992" fill-rule="nonzero">
            <path d="M49.5,2331 C50.880712,2331 52,2332.11929 52,2333.5 L51.999551,2339 L55.7833223,2339 C57.3810032,2339 58.6869832,2340.24892 58.7782296,2341.82373 L58.7833223,2342 C58.7833223,2342.1979 58.7637406,2342.39531 58.7248633,2342.58935 L57.3440381,2349.48124 C56.9178538,2351.60839 54.8737312,2353.00807 52.7364133,2352.63625 L43.445724,2351.02057 C43.2062038,2352.15143 42.2021992,2353 41,2353 L38,2353 C36.6192881,2353 35.5,2351.88071 35.5,2350.5 L35.5,2339.5 C35.5,2338.11929 36.6192881,2337 38,2337 L41,2337 C42.2096818,2337 43.2186941,2337.85917 43.4501074,2339.00057 L44.839551,2339 L45.9577828,2333.03928 C46.1689314,2331.91315 47.1154367,2331.08234 48.2443304,2331.00577 L48.4149633,2331 L49.5,2331 Z M41,2339 L38,2339 C37.7238576,2339 37.5,2339.22386 37.5,2339.5 L37.5,2350.5 C37.5,2350.77614 37.7238576,2351 38,2351 L41,2351 C41.2761424,2351 41.5,2350.77614 41.5,2350.5 L41.5,2339.5 C41.5,2339.22386 41.2761424,2339 41,2339 Z M49.5000001,2333 L48.4149633,2333 C48.1743557,2333 47.9678684,2333.17137 47.9235272,2333.40786 L46.652946,2340.18429 C46.5642636,2340.65726 46.1512889,2341 45.6700738,2341 L43.503551,2341 L43.503551,2349 L53.0791984,2350.66584 C54.1478574,2350.85176 55.1699186,2350.15191 55.3830108,2349.08834 L56.763836,2342.19645 C56.7767951,2342.13177 56.7833223,2342.06597 56.7833223,2342 C56.7833223,2341.44772 56.3356071,2341 55.7833223,2341 L50.0000001,2341 L50.0000001,2333.5 C50.0000001,2333.22386 49.7761425,2333 49.5000001,2333 Z" id="Shape" transform="translate(47.1417, 2342) scale(1, -1) translate(-47.1417, -2342)"></path>
            <path d="M47,2314 C61.9116882,2314 74,2326.08831 74,2341 C74,2355.91169 61.9116882,2368 47,2368 C32.0883118,2368 20,2355.91169 20,2341 C20,2326.08831 32.0883118,2314 47,2314 Z M47,2316 C33.1928813,2316 22,2327.19288 22,2341 C22,2354.80712 33.1928813,2366 47,2366 C60.8071187,2366 72,2354.80712 72,2341 C72,2327.19288 60.8071187,2316 47,2316 Z" id="Oval" transform="translate(47, 2341) scale(1, -1) translate(-47, -2341)"></path>
        </g>
    </g>
</svg>