<?xml version="1.0" encoding="UTF-8"?>
<svg width="20px" height="20px" viewBox="0 0 20 20" version="1.1" xmlns="http://www.w3.org/2000/svg" xmlns:xlink="http://www.w3.org/1999/xlink">
    <title>actionPiechartHover</title>
    <g id="v2" stroke="none" stroke-width="1" fill="none" fill-rule="evenodd">
        <g id="Round-4" transform="translate(-26.000000, -585.000000)" fill="#0FC992" fill-rule="nonzero">
            <path d="M34.5208659,586.62601 C36.7415185,586.234449 38.9126794,586.743201 40.6598772,587.89006 L35.9968754,594.996875 L42.8085127,600.081363 C41.5589363,601.756066 39.6930488,602.976267 37.4728849,603.367741 C32.8497833,604.182919 28.4411871,601.095987 27.6260095,596.472885 C26.810832,591.849783 29.8977643,587.441187 34.5208659,586.62601 Z M34.798703,588.201702 C31.0458323,588.863434 28.5399696,592.442177 29.2017019,596.195048 C29.8634343,599.947919 33.4421771,602.453781 37.1950478,601.792049 C38.3314234,601.591675 39.3730618,601.120101 40.2498686,600.432786 L40.4178159,600.293657 L33.8329844,595.378247 L38.3413905,588.506146 L38.1348788,588.434405 C37.1719744,588.11971 36.141994,588.019237 35.1087202,588.154146 L34.798703,588.201702 Z M41.808217,588.793105 C43.105953,590.006886 44.0354297,591.636233 44.3677413,593.520866 C44.7000529,595.405499 44.3839002,597.254484 43.5795647,598.838917 L37.9664909,594.649579 L41.808217,588.793105 Z M41.9459766,591.499695 L40.1299399,594.267089 L42.7831344,596.247453 L42.7995637,596.165884 C42.9156206,595.490019 42.9303224,594.794196 42.8381237,594.097356 L42.7920489,593.798703 C42.6516434,593.002424 42.3783065,592.25218 41.989487,591.57171 L41.9459766,591.499695 Z" id="Shape"></path>
        </g>
    </g>
</svg>