<?xml version="1.0" encoding="UTF-8"?>
<svg width="15px" height="15px" viewBox="0 0 15 15" version="1.1" xmlns="http://www.w3.org/2000/svg" xmlns:xlink="http://www.w3.org/1999/xlink">
    <title>actionAttachFile</title>
    <g id="v2" stroke="none" stroke-width="1" fill="none" fill-rule="evenodd">
        <g id="Group-6" fill="#ACACAC" fill-rule="nonzero">
            <path d="M8.43933983,0.853553391 C9.02512627,0.267766953 9.97487373,0.267766953 10.5606602,0.853553391 L12.6464466,2.93933983 C13.232233,3.52512627 13.232233,4.47487373 12.6464466,5.06066017 L7.25355339,10.4535534 C6.56123497,11.1458718 5.43876503,11.1458718 4.74644661,10.4535534 C4.05412819,9.76123497 4.05412819,8.63876503 4.74644661,7.94644661 L9.2,3.49289322 L9.90710678,4.2 L5.45355339,8.65355339 C5.15175926,8.95534752 5.15175926,9.44465248 5.45355339,9.74644661 C5.75534752,10.0482407 6.24465248,10.0482407 6.54644661,9.74644661 L11.9393398,4.35355339 C12.134602,4.15829124 12.134602,3.84170876 11.9393398,3.64644661 L9.85355339,1.56066017 C9.65829124,1.36539803 9.34170876,1.36539803 9.14644661,1.56066017 L2.02512627,8.68198052 C1.36874894,9.33835784 1,10.2285965 1,11.1568542 L1,13.5 C1,13.7761424 1.22385763,14 1.5,14 L3.89800367,14 C4.79776255,14 5.66296096,13.6534888 6.31397639,13.0324051 L13.854861,5.83822784 L14.2166332,5.49308888 L14.9069111,6.2166332 L14.545139,6.56177216 L7.00425431,13.7559495 C6.16723447,14.5544856 5.05483652,15 3.89800367,15 L1.5,15 C0.671572875,15 0,14.3284271 0,13.5 L0,11.1568542 C0,9.96338005 0.474105782,8.81878744 1.31801948,7.97487373 L8.43933983,0.853553391 Z" id="Path"></path>
        </g>
    </g>
</svg>