<?xml version="1.0" encoding="UTF-8"?>
<svg width="20px" height="20px" viewBox="0 0 20 20" version="1.1" xmlns="http://www.w3.org/2000/svg" xmlns:xlink="http://www.w3.org/1999/xlink">
    <title>actionPiechart</title>
    <g id="v2" stroke="none" stroke-width="1" fill="none" fill-rule="evenodd">
        <g id="Round-4" transform="translate(-70.000000, -585.000000)" fill="#ACACAC">
            <path d="M78.5208659,586.62601 C80.7415185,586.234449 82.9126794,586.743201 84.6598772,587.89006 L79.9968754,594.996875 L86.8085127,600.081363 C85.5589363,601.756066 83.6930488,602.976267 81.4728849,603.367741 C76.8497833,604.182919 72.4411871,601.095987 71.6260095,596.472885 C70.810832,591.849783 73.8977643,587.441187 78.5208659,586.62601 Z M78.798703,588.201702 C75.0458323,588.863434 72.5399696,592.442177 73.2017019,596.195048 C73.8634343,599.947919 77.4421771,602.453781 81.1950478,601.792049 C82.3314234,601.591675 83.3730618,601.120101 84.2498686,600.432786 L84.4178159,600.293657 L77.8329844,595.378247 L82.3413905,588.506146 L82.1348788,588.434405 C81.1719744,588.11971 80.141994,588.019237 79.1087202,588.154146 L78.798703,588.201702 Z M85.808217,588.793105 C87.105953,590.006886 88.0354297,591.636233 88.3677413,593.520866 C88.7000529,595.405499 88.3839002,597.254484 87.5795647,598.838917 L81.9664909,594.649579 L85.808217,588.793105 Z M85.9459766,591.499695 L84.1299399,594.267089 L86.7831344,596.247453 L86.7995637,596.165884 C86.9156206,595.490019 86.9303224,594.794196 86.8381237,594.097356 L86.7920489,593.798703 C86.6516434,593.002424 86.3783065,592.25218 85.989487,591.57171 L85.9459766,591.499695 Z" id="Shape"></path>
        </g>
    </g>
</svg>