<?xml version="1.0" encoding="UTF-8"?>
<svg width="54px" height="54px" viewBox="0 0 54 54" version="1.1" xmlns="http://www.w3.org/2000/svg" xmlns:xlink="http://www.w3.org/1999/xlink">
    <title>iconCurrencyExchange_hover</title>
    <g id="v2" stroke="none" stroke-width="1" fill="none" fill-rule="evenodd">
        <g id="Round-2" transform="translate(-86, -1870)">
            <circle id="Filled" fill="#0FC992" cx="113" cy="1897" r="27"></circle>
            <path d="M105.286549,1887.80747 L106.572124,1889.33956 C102.341377,1892.88957 101.789538,1899.19713 105.339556,1903.42788 C107.012438,1905.42154 109.29766,1906.59827 111.689345,1906.9138 L111.679457,1903.98272 L117.389508,1907.67625 L111.705803,1911.79274 L111.696143,1908.92897 C108.728986,1908.60506 105.877545,1907.18047 103.807467,1904.71345 C99.5474452,1899.63656 100.209653,1892.06749 105.286549,1887.80747 Z M114.294197,1882.20726 L114.303857,1885.07103 C117.271014,1885.39494 120.122455,1886.81953 122.192533,1889.28655 C126.452555,1894.36344 125.790347,1901.93251 120.713451,1906.19253 L119.427876,1904.66044 C123.658623,1901.11043 124.210462,1894.80287 120.660444,1890.57212 C118.987562,1888.57846 116.70234,1887.40173 114.310655,1887.0862 L114.320543,1890.01728 L108.610492,1886.32375 L114.294197,1882.20726 Z M113.440115,1891.20726 L113.441218,1892.74527 C113.766495,1892.79222 114.066839,1892.88368 114.34225,1893.01962 C114.762986,1893.22731 115.088832,1893.51376 115.319789,1893.879 C115.550746,1894.24423 115.666225,1894.64348 115.666225,1895.07675 L114.629603,1895.07675 C114.629603,1894.6041 114.479213,1894.2326 114.178432,1893.96225 C113.984248,1893.78772 113.738576,1893.66952 113.441415,1893.60767 L113.442411,1896.34706 C113.919481,1896.49964 114.305365,1896.66434 114.600062,1896.84116 C114.967087,1897.06137 115.239223,1897.31829 115.416469,1897.61191 C115.593715,1897.90553 115.682338,1898.25107 115.682338,1898.64853 C115.682338,1899.28232 115.435267,1899.78989 114.941127,1900.17124 C114.546922,1900.47546 114.046752,1900.65833 113.440615,1900.71986 L113.440115,1902.20726 L112.440115,1902.20726 L112.439966,1900.70973 C112.095641,1900.66425 111.767414,1900.57248 111.455287,1900.43442 C110.989792,1900.22853 110.630824,1899.94654 110.378383,1899.58847 C110.125941,1899.2304 109.999721,1898.82399 109.999721,1898.36923 L111.036342,1898.36923 C111.036342,1898.84189 111.210902,1899.21518 111.560023,1899.48911 C111.79833,1899.67609 112.091277,1899.79925 112.438862,1899.8586 L112.438566,1897.04439 C111.728935,1896.81078 111.199759,1896.53356 110.851039,1896.21274 C110.448207,1895.84213 110.246791,1895.3847 110.246791,1894.84042 C110.246791,1894.22454 110.492966,1893.71518 110.985316,1893.31235 C111.376706,1892.99212 111.861435,1892.79917 112.439503,1892.73351 L112.440115,1891.20726 L113.440115,1891.20726 Z M113.441475,1897.36496 L113.441651,1899.86605 C113.756889,1899.8178 114.013224,1899.71811 114.210658,1899.56699 C114.500697,1899.34498 114.645717,1899.04241 114.645717,1898.65927 C114.645717,1898.27613 114.511439,1897.97983 114.242885,1897.77036 C114.068182,1897.63409 113.801046,1897.49896 113.441475,1897.36496 Z M112.439253,1893.59319 C112.147798,1893.64264 111.906642,1893.74238 111.715785,1893.89243 C111.431117,1894.11622 111.288783,1894.42685 111.288783,1894.82431 C111.288783,1895.143 111.423956,1895.41245 111.694301,1895.63266 C111.866139,1895.77264 112.114651,1895.90501 112.439838,1896.0298 L112.439253,1893.59319 Z" id="Combined-Shape" fill="#FFFFFF" fill-rule="nonzero"></path>
        </g>
    </g>
</svg>