<?xml version="1.0" encoding="UTF-8"?>
<svg width="54px" height="54px" viewBox="0 0 54 54" version="1.1" xmlns="http://www.w3.org/2000/svg" xmlns:xlink="http://www.w3.org/1999/xlink">
    <title>iconPartner_hover</title>
    <g id="v2" stroke="none" stroke-width="1" fill="none" fill-rule="evenodd">
        <g id="Round-2" transform="translate(-86, -2092)">
            <circle id="Filled" fill="#0FC992" cx="113" cy="2119" r="27"></circle>
            <path d="M111.3,2127 L112.5,2119 L113.5,2119 L114.7,2127 L122,2127 L122,2125 C122,2122.79086 120.209139,2121 118,2121 L115.5,2121 L115.5,2119 L118,2119 C121.313708,2119 124,2121.68629 124,2125 L124,2129 L102,2129 L102,2125 C102,2121.68629 104.686292,2119 108,2119 L110.5,2119 L110.5,2121 L108,2121 C105.790861,2121 104,2122.79086 104,2125 L104,2127 L111.3,2127 Z M113,2118 C110.238576,2118 108,2115.76142 108,2113 C108,2110.23858 110.238576,2108 113,2108 C115.761424,2108 118,2110.23858 118,2113 C118,2115.76142 115.761424,2118 113,2118 Z M113,2116 C114.656854,2116 116,2114.65685 116,2113 C116,2111.34315 114.656854,2110 113,2110 C111.343146,2110 110,2111.34315 110,2113 C110,2114.65685 111.343146,2116 113,2116 Z" id="Shape" fill="#FFFFFF" fill-rule="nonzero"></path>
        </g>
    </g>
</svg>