<?xml version="1.0" encoding="UTF-8"?>
<svg width="54px" height="54px" viewBox="0 0 54 54" version="1.1" xmlns="http://www.w3.org/2000/svg" xmlns:xlink="http://www.w3.org/1999/xlink">
    <title>iconPartner</title>
    <g id="v2" stroke="none" stroke-width="1" fill="none" fill-rule="evenodd">
        <g id="Round-2" transform="translate(-20, -2092)" fill="#0FC992" fill-rule="nonzero">
            <path d="M47,2146 C61.9116882,2146 74,2133.91169 74,2119 C74,2104.08831 61.9116882,2092 47,2092 C32.0883118,2092 20,2104.08831 20,2119 C20,2133.91169 32.0883118,2146 47,2146 Z M47,2144 C33.1928813,2144 22,2132.80712 22,2119 C22,2105.19288 33.1928813,2094 47,2094 C60.8071187,2094 72,2105.19288 72,2119 C72,2132.80712 60.8071187,2144 47,2144 Z" id="Oval"></path>
            <path d="M45.3,2127 L46.5,2119 L47.5,2119 L48.7,2127 L56,2127 L56,2125 C56,2122.79086 54.209139,2121 52,2121 L49.5,2121 L49.5,2119 L52,2119 C55.3137085,2119 58,2121.68629 58,2125 L58,2129 L36,2129 L36,2125 C36,2121.68629 38.6862915,2119 42,2119 L44.5,2119 L44.5,2121 L42,2121 C39.790861,2121 38,2122.79086 38,2125 L38,2127 L45.3,2127 Z M47,2118 C44.2385763,2118 42,2115.76142 42,2113 C42,2110.23858 44.2385763,2108 47,2108 C49.7614237,2108 52,2110.23858 52,2113 C52,2115.76142 49.7614237,2118 47,2118 Z M47,2116 C48.6568542,2116 50,2114.65685 50,2113 C50,2111.34315 48.6568542,2110 47,2110 C45.3431458,2110 44,2111.34315 44,2113 C44,2114.65685 45.3431458,2116 47,2116 Z" id="Shape"></path>
        </g>
    </g>
</svg>