<?xml version="1.0" encoding="UTF-8"?>
<svg width="54px" height="54px" viewBox="0 0 54 54" version="1.1" xmlns="http://www.w3.org/2000/svg" xmlns:xlink="http://www.w3.org/1999/xlink">
    <title>iconCurrencyExchange</title>
    <g id="v2" stroke="none" stroke-width="1" fill="none" fill-rule="evenodd">
        <g id="Round-2" transform="translate(-20, -1870)" fill="#0FC992" fill-rule="nonzero">
            <path d="M47,1870 C61.9116882,1870 74,1882.08831 74,1897 C74,1911.91169 61.9116882,1924 47,1924 C32.0883118,1924 20,1911.91169 20,1897 C20,1882.08831 32.0883118,1870 47,1870 Z M47,1872 C33.1928813,1872 22,1883.19288 22,1897 C22,1910.80712 33.1928813,1922 47,1922 C60.8071187,1922 72,1910.80712 72,1897 C72,1883.19288 60.8071187,1872 47,1872 Z M39.2865487,1887.80747 L40.5721239,1889.33956 C36.3413773,1892.88957 35.7895376,1899.19713 39.3395556,1903.42788 C41.0124384,1905.42154 43.2976595,1906.59827 45.6893445,1906.9138 L45.6794567,1903.98272 L51.3895082,1907.67625 L45.7058032,1911.79274 L45.6961426,1908.92897 C42.7289859,1908.60506 39.8775449,1907.18047 37.8074667,1904.71345 C33.5474452,1899.63656 34.2096527,1892.06749 39.2865487,1887.80747 Z M48.2941968,1882.20726 L48.3038574,1885.07103 C51.2710141,1885.39494 54.1224551,1886.81953 56.1925333,1889.28655 C60.4525548,1894.36344 59.7903473,1901.93251 54.7134513,1906.19253 L53.4278761,1904.66044 C57.6586227,1901.11043 58.2104624,1894.80287 54.6604444,1890.57212 C52.9875616,1888.57846 50.7023405,1887.40173 48.3106555,1887.0862 L48.3205433,1890.01728 L42.6104918,1886.32375 L48.2941968,1882.20726 Z M47.4401154,1891.20726 L47.4412184,1892.74527 C47.7664949,1892.79222 48.0668388,1892.88368 48.3422499,1893.01962 C48.7629856,1893.22731 49.0888319,1893.51376 49.319789,1893.879 C49.550746,1894.24423 49.6662245,1894.64348 49.6662245,1895.07675 L48.6296034,1895.07675 C48.6296034,1894.6041 48.4792128,1894.2326 48.1784315,1893.96225 C47.9842482,1893.78772 47.738576,1893.66952 47.441415,1893.60767 L47.4424105,1896.34706 C47.919481,1896.49964 48.305365,1896.66434 48.6000624,1896.84116 C48.9670871,1897.06137 49.2392226,1897.31829 49.4164687,1897.61191 C49.5937148,1897.90553 49.6823378,1898.25107 49.6823378,1898.64853 C49.6823378,1899.28232 49.4352675,1899.78989 48.9411269,1900.17124 C48.5469223,1900.47546 48.0467517,1900.65833 47.4406151,1900.71986 L47.4401154,1902.20726 L46.4401154,1902.20726 L46.4399661,1900.70973 C46.0956405,1900.66425 45.7674142,1900.57248 45.455287,1900.43442 C44.9897922,1900.22853 44.6308241,1899.94654 44.3783827,1899.58847 C44.1259413,1899.2304 43.9997206,1898.82399 43.9997206,1898.36923 L45.0363417,1898.36923 C45.0363417,1898.84189 45.2109023,1899.21518 45.5600233,1899.48911 C45.7983305,1899.67609 46.0912769,1899.79925 46.4388625,1899.8586 L46.4385663,1897.04439 C45.728935,1896.81078 45.1997592,1896.53356 44.851039,1896.21274 C44.4482069,1895.84213 44.2467909,1895.3847 44.2467909,1894.84042 C44.2467909,1894.22454 44.4929661,1893.71518 44.9853163,1893.31235 C45.3767059,1892.99212 45.8614349,1892.79917 46.4395035,1892.73351 L46.4401154,1891.20726 L47.4401154,1891.20726 Z M47.4414753,1897.36496 L47.4416511,1899.86605 C47.7568887,1899.8178 48.0132244,1899.71811 48.2106581,1899.56699 C48.5006972,1899.34498 48.6457167,1899.04241 48.6457167,1898.65927 C48.6457167,1898.27613 48.5114394,1897.97983 48.2428847,1897.77036 C48.0681824,1897.63409 47.801046,1897.49896 47.4414753,1897.36496 Z M46.4392531,1893.59319 C46.147798,1893.64264 45.906642,1893.74238 45.7157851,1893.89243 C45.4311171,1894.11622 45.2887831,1894.42685 45.2887831,1894.82431 C45.2887831,1895.143 45.4239556,1895.41245 45.6943007,1895.63266 C45.8661388,1895.77264 46.114651,1895.90501 46.4398375,1896.0298 L46.4392531,1893.59319 Z" id="Combined-Shape"></path>
        </g>
    </g>
</svg>