<?xml version="1.0" encoding="UTF-8"?>
<svg width="16px" height="16px" viewBox="0 0 16 16" version="1.1" xmlns="http://www.w3.org/2000/svg" xmlns:xlink="http://www.w3.org/1999/xlink">
    <title>statusCanceled</title>
    <g id="v2" stroke="none" stroke-width="1" fill="none" fill-rule="evenodd">
        <g id="Round-4" transform="translate(-20, -133)" fill="#E91A0E" fill-rule="nonzero">
            <path d="M28.9099072,135.428426 C29.1488315,135.573858 29.3494153,135.774442 29.4948475,136.013366 L34.7154638,144.590093 C35.2179917,145.415674 34.956105,146.49232 34.1305235,146.994847 C33.8563584,147.161731 33.5415782,147.25 33.2206163,147.25 L22.7793837,147.25 C21.8128853,147.25 21.0293837,146.466498 21.0293837,145.5 C21.0293837,145.179038 21.1176531,144.864258 21.2845362,144.590093 L26.5051525,136.013366 C27.0076804,135.187785 28.0843257,134.925898 28.9099072,135.428426 Z M27.7864504,136.793286 L22.565834,145.370013 C22.5419936,145.40918 22.5293837,145.454148 22.5293837,145.5 C22.5293837,145.638071 22.6413125,145.75 22.7793837,145.75 L33.2206163,145.75 C33.266468,145.75 33.3114366,145.73739 33.3506031,145.71355 C33.4685433,145.64176 33.5059557,145.487953 33.434166,145.370013 L28.2135496,136.793286 C28.1927736,136.759154 28.1641188,136.7305 28.1299867,136.709724 C28.0120465,136.637934 27.8582401,136.675346 27.7864504,136.793286 Z M28,143.5 C28.4142136,143.5 28.75,143.835786 28.75,144.25 C28.75,144.664214 28.4142136,145 28,145 C27.5857864,145 27.25,144.664214 27.25,144.25 C27.25,143.835786 27.5857864,143.5 28,143.5 Z M28.75,139 L28.75,142.75 L27.25,142.75 L27.25,139 L28.75,139 Z" id="Combined-Shape"></path>
        </g>
    </g>
</svg>