<?xml version="1.0" encoding="UTF-8"?>
<svg width="16px" height="16px" viewBox="0 0 16 16" version="1.1" xmlns="http://www.w3.org/2000/svg" xmlns:xlink="http://www.w3.org/1999/xlink">
    <title>statusRejected</title>
    <g id="v2" stroke="none" stroke-width="1" fill="none" fill-rule="evenodd">
        <g id="Round-4" transform="translate(-76, -133)" fill="#E91A0E" fill-rule="nonzero">
            <path d="M84.9099072,135.428426 C85.1488315,135.573858 85.3494153,135.774442 85.4948475,136.013366 L90.7154638,144.590093 C91.2179917,145.415674 90.956105,146.49232 90.1305235,146.994847 C89.8563584,147.161731 89.5415782,147.25 89.2206163,147.25 L78.7793837,147.25 C77.8128853,147.25 77.0293837,146.466498 77.0293837,145.5 C77.0293837,145.179038 77.1176531,144.864258 77.2845362,144.590093 L82.5051525,136.013366 C83.0076804,135.187785 84.0843257,134.925898 84.9099072,135.428426 Z M83.7864504,136.793286 L78.565834,145.370013 C78.5419936,145.40918 78.5293837,145.454148 78.5293837,145.5 C78.5293837,145.638071 78.6413125,145.75 78.7793837,145.75 L89.2206163,145.75 C89.266468,145.75 89.3114366,145.73739 89.3506031,145.71355 C89.4685433,145.64176 89.5059557,145.487953 89.434166,145.370013 L84.2135496,136.793286 C84.1927736,136.759154 84.1641188,136.7305 84.1299867,136.709724 C84.0120465,136.637934 83.8582401,136.675346 83.7864504,136.793286 Z M85.3964466,140.646447 L86.1035534,141.353553 L84.7073837,142.750019 L86.1035534,144.146447 L85.3964466,144.853553 L84.0003837,143.457019 L82.6035534,144.853553 L81.8964466,144.146447 L83.2933837,142.750019 L81.8964466,141.353553 L82.6035534,140.646447 L84.0003837,142.043019 L85.3964466,140.646447 Z" id="Combined-Shape"></path>
        </g>
    </g>
</svg>