
<svg width="18px" height="18px" viewBox="0 0 18 18" version="1.1" xmlns="http://www.w3.org/2000/svg" xmlns:xlink="http://www.w3.org/1999/xlink">
    <g id="v2" stroke="none" stroke-width="1" fill="none">
        <path d="M7.54370742,0.00865691148 C7.91156025,-0.0504947969 8.25771582,0.199756904 8.31686753,0.567609731 C8.37601924,0.935462557 8.12576753,1.28161813 7.75791471,1.34076983 C6.56191519,1.53308972 5.43766207,2.00233725 4.463471,2.70581598 C4.16141421,2.92393595 3.73972763,2.85589171 3.52160766,2.55383492 C3.30348769,2.25177813 3.37153193,1.83009154 3.67358872,1.61197157 C4.81735359,0.78604093 6.13848018,0.234621173 7.54370742,0.00865691148 Z M14.3280853,1.61240597 C14.6300231,1.83069063 14.6978374,2.25241425 14.4795527,2.55435206 C14.2612681,2.85628986 13.8395445,2.92410413 13.5376067,2.70581948 C12.5559166,1.99611081 11.4291415,1.53295191 10.2428498,1.34152938 C9.87502927,1.28217708 9.62496637,0.935885099 9.68431867,0.568064584 C9.74367096,0.200244069 10.0899629,-0.049818832 10.4577835,0.00953346284 C11.8505685,0.2342762 13.1746587,0.77854112 14.3280853,1.61240597 Z M17.9913431,7.54370742 C18.0504948,7.91156025 17.8002431,8.25771582 17.4323903,8.31686753 C17.0645374,8.37601924 16.7183819,8.12576753 16.6592302,7.75791471 C16.4669103,6.56191519 15.9976627,5.43766207 15.294184,4.463471 C15.0760641,4.16141421 15.1441083,3.73972763 15.4461651,3.52160766 C15.7482219,3.30348769 16.1699085,3.37153193 16.3880284,3.67358872 C17.2139591,4.81735359 17.7653788,6.13848018 17.9913431,7.54370742 Z M16.387594,14.3280853 C16.1693094,14.6300231 15.7475857,14.6978374 15.4456479,14.4795527 C15.1437101,14.2612681 15.0758959,13.8395445 15.2941805,13.5376067 C16.0038892,12.5559166 16.4670481,11.4291415 16.6584706,10.2428498 C16.7178229,9.87502927 17.0641149,9.62496637 17.4319354,9.68431867 C17.7997559,9.74367096 18.0498188,10.0899629 17.9904665,10.4577835 C17.7657238,11.8505685 17.2214589,13.1746587 16.387594,14.3280853 Z M10.4562926,17.9913431 C10.0884398,18.0504948 9.74228418,17.8002431 9.68313247,17.4323903 C9.62398076,17.0645374 9.87423247,16.7183819 10.2420853,16.6592302 C11.4380848,16.4669103 12.5623379,15.9976627 13.536529,15.294184 C13.8385858,15.0760641 14.2602724,15.1441083 14.4783923,15.4461651 C14.6965123,15.7482219 14.6284681,16.1699085 14.3264113,16.3880284 C13.1826464,17.2139591 11.8615198,17.7653788 10.4562926,17.9913431 Z M3.67191469,16.387594 C3.36997688,16.1693094 3.30216261,15.7475857 3.52044726,15.4456479 C3.73873192,15.1437101 4.16045554,15.0758959 4.46239334,15.2941805 C5.44408341,16.0038892 6.57085853,16.4670481 7.75715021,16.6584706 C8.12497073,16.7178229 8.37503363,17.0641149 8.31568133,17.4319354 C8.25632904,17.7997559 7.91003705,18.0498188 7.54221654,17.9904665 C6.14943148,17.7657238 4.82534126,17.2214589 3.67191469,16.387594 Z M0.00865691148,10.4562926 C-0.0504947969,10.0884398 0.199756904,9.74228418 0.567609731,9.68313247 C0.935462557,9.62398076 1.28161813,9.87423247 1.34076983,10.2420853 C1.53308972,11.4380848 2.00233725,12.5623379 2.70581598,13.536529 C2.92393595,13.8385858 2.85589171,14.2602724 2.55383492,14.4783923 C2.25177813,14.6965123 1.83009154,14.6284681 1.61197157,14.3264113 C0.78604093,13.1826464 0.234621173,11.8615198 0.00865691148,10.4562926 Z M1.61240597,3.67191469 C1.83069063,3.36997688 2.25241425,3.30216261 2.55435206,3.52044726 C2.85628986,3.73873192 2.92410413,4.16045554 2.70581948,4.46239334 C1.99611081,5.44408341 1.53295191,6.57085853 1.34152938,7.75715021 C1.28217708,8.12497073 0.935885099,8.37503363 0.568064584,8.31568133 C0.200244069,8.25632904 -0.049818832,7.91003705 0.00953346284,7.54221654 C0.2342762,6.14943148 0.77854112,4.82534126 1.61240597,3.67191469 Z" id="Shape-Copy-3" fill="#ACACAC" fill-rule="nonzero"></path>
    </g>
</svg>