<?xml version="1.0" encoding="UTF-8"?>
<svg width="22px" height="22px" viewBox="0 0 22 22" version="1.1" xmlns="http://www.w3.org/2000/svg" xmlns:xlink="http://www.w3.org/1999/xlink">
    <title>iconAtm</title>
    <g id="v2" stroke="none" stroke-width="1" fill="none" fill-rule="evenodd">
        <g id="Round-3" transform="translate(-69, -753)" fill="#0FC992" fill-rule="nonzero">
            <path d="M86,773 L74,773 L74,762.5 L71,762.5 L71,756 L89,756 L89,762.5 L86,762.5 L86,773 Z M75,769.5 L75,772 L77.5,772 C77.5,770.619288 76.3807119,769.5 75,769.5 Z M85,769.5 C83.6192881,769.5 82.5,770.619288 82.5,772 L85,772 L85,769.5 Z M85,760 L75,760 L75,768.5 C76.9329966,768.5 78.5,770.067003 78.5,772 L81.5,772 C81.5,770.067003 83.0670034,768.5 85,768.5 L85,760 Z M80,761.5 C81.9329966,761.5 83.5,763.067003 83.5,765 C83.5,766.932997 81.9329966,768.5 80,768.5 C78.0670034,768.5 76.5,766.932997 76.5,765 C76.5,763.067003 78.0670034,761.5 80,761.5 Z M80,762.5 C78.6192881,762.5 77.5,763.619288 77.5,765 C77.5,766.380712 78.6192881,767.5 80,767.5 C81.3807119,767.5 82.5,766.380712 82.5,765 C82.5,763.619288 81.3807119,762.5 80,762.5 Z M88,757 L72,757 L72,761.5 L74,761.5 L74,759 L86,759 L86,761.5 L88,761.5 L88,757 Z" id="Shape"></path>
        </g>
    </g>
</svg>