<?xml version="1.0" encoding="UTF-8"?>
<svg width="32px" height="32px" viewBox="0 0 32 32" version="1.1" xmlns="http://www.w3.org/2000/svg" xmlns:xlink="http://www.w3.org/1999/xlink">
    <title>iconIndividualSafes</title>
    <g id="v2" stroke="none" stroke-width="1" fill="none" fill-rule="evenodd">
        <g id="Round-3" transform="translate(-20, -800)" fill="#FFFFFF" fill-rule="nonzero">
            <path d="M47,801 C49.209139,801 51,802.790861 51,805 L51,827 C51,829.209139 49.209139,831 47,831 L25,831 C22.790861,831 21,829.209139 21,827 L21,805 C21,802.790861 22.790861,801 25,801 L47,801 Z M47,803 L25,803 C23.8954305,803 23,803.895431 23,805 L23,827 C23,828.104569 23.8954305,829 25,829 L47,829 C48.1045695,829 49,828.104569 49,827 L49,805 C49,803.895431 48.1045695,803 47,803 Z M42.7574478,820.171565 L44.1922034,821.60636 C43.0236173,822.481587 41.5723496,823 40,823 C38.4276504,823 36.9763827,822.481587 35.8077966,821.60636 L37.2425522,820.171565 C38.0329968,820.695108 38.9808928,821 40,821 C41.0191072,821 41.9670032,820.695108 42.7574478,820.171565 Z M34.3936395,811.807797 L35.8284349,813.242552 C35.3048917,814.032997 35,814.980893 35,816 C35,817.019107 35.3048917,817.967003 35.8284349,818.757448 L34.3936395,820.192203 C33.5184131,819.023617 33,817.57235 33,816 C33,814.42765 33.5184131,812.976383 34.3936395,811.807797 Z M45.6063605,811.807797 C46.4815869,812.976383 47,814.42765 47,816 C47,817.57235 46.4815869,819.023617 45.6063605,820.192203 L44.1715651,818.757448 C44.6951083,817.967003 45,817.019107 45,816 C45,814.980893 44.6951083,814.032997 44.1715651,813.242552 L45.6063605,811.807797 Z M40,814 C41.1045695,814 42,814.895431 42,816 C42,817.104569 41.1045695,818 40,818 C38.8954305,818 38,817.104569 38,816 C38,814.895431 38.8954305,814 40,814 Z M40,809 C41.5723496,809 43.0236173,809.518413 44.1922034,810.39364 L42.7574478,811.828435 C41.9670032,811.304892 41.0191072,811 40,811 C38.9808928,811 38.0329968,811.304892 37.2425522,811.828435 L35.8077966,810.39364 C36.9763827,809.518413 38.4276504,809 40,809 Z" id="Shape"></path>
        </g>
    </g>
</svg>