<?xml version="1.0" encoding="UTF-8"?>
<svg width="32px" height="32px" viewBox="0 0 32 32" version="1.1" xmlns="http://www.w3.org/2000/svg" xmlns:xlink="http://www.w3.org/1999/xlink">
    <title>iconAllDay</title>
    <g id="v2" stroke="none" stroke-width="1" fill="none" fill-rule="evenodd">
        <g id="Round-3" transform="translate(-20, -748)" fill="#FFFFFF" fill-rule="nonzero">
            <path d="M36,749 C39.7575238,749 43.2895105,750.390871 46.0013533,752.819883 L46,751 C46,750.487164 46.3860402,750.064493 46.8833789,750.006728 L47,750 C47.5522847,750 48,750.447715 48,751 L48,756 L43,756 C42.4477153,756 42,755.552285 42,755 C42,754.447715 42.4477153,754 43,754 L44.3078976,753.999606 C42.0089915,752.086466 39.0938428,751 36,751 C28.8202983,751 23,756.820298 23,764 C23,771.179702 28.8202983,777 36,777 C42.8096717,777 48.4493875,771.745431 48.9621181,765.000532 L50.9671183,765.000606 C50.9653854,765.02689 50.9635843,765.053164 50.9617149,765.079428 C50.4050963,772.899654 43.8821693,779 36,779 C27.7157288,779 21,772.284271 21,764 C21,755.715729 27.7157288,749 36,749 Z M32.423913,758 C34.4782609,758 35.8173913,759.396552 35.8173913,761.258621 C35.8173913,762.801724 34.9652174,763.801724 34.0217391,764.991379 L31.4576087,768.258621 L31.4576087,768.37069 L36,768.37069 L36,770 L29.0608696,770 L29.0608696,768.775862 L32.9184783,763.931034 C33.4815217,763.232759 34.0902174,762.448276 34.0902174,761.422414 C34.0902174,760.327586 33.3673913,759.603448 32.3858696,759.603448 C31.2902174,759.603448 30.651087,760.508621 30.651087,761.525862 L30.651087,761.62931 L29,761.62931 L29,761.534483 C29,759.75 30.1413043,758 32.423913,758 Z M42.8870229,758 L42.8870229,766 L44.2,766 L44.2,767.661538 L42.8870229,767.661538 L42.8870229,770 L41.2458015,770 L41.2458015,767.661538 L36.2,767.661538 L36.2,765.982418 C37.4519084,763.30989 38.940458,760.654945 40.3679389,758 L42.8870229,758 Z M41.2458015,759.591209 L41.1618321,759.591209 C40.0320611,761.586813 38.8335878,763.802198 37.8259542,765.920879 L37.8259542,766 L41.2458015,766 L41.2458015,759.591209 Z" id="Combined-Shape"></path>
        </g>
    </g>
</svg>