<?xml version="1.0" encoding="UTF-8"?>
<svg width="32px" height="32px" viewBox="0 0 32 32" version="1.1" xmlns="http://www.w3.org/2000/svg" xmlns:xlink="http://www.w3.org/1999/xlink">
    <title>iconMeetingRoom</title>
    <g id="v2" stroke="none" stroke-width="1" fill="none" fill-rule="evenodd">
        <g id="Round-3" transform="translate(-64, -800)" fill="#FFFFFF" fill-rule="nonzero">
            <path d="M65,814 C65.5522847,814 66,814.447715 66,815 L66,823 L71,823 C71.5522847,823 72,823.447715 72,824 L72,830.003583 C72,830.555867 71.5522847,831.003583 71,831.003583 C70.4477153,831.003583 70,830.555867 70,830.003583 L70,825 L66,825 L66,830.003583 C66,830.555867 65.5522847,831.003583 65,831.003583 C64.4477153,831.003583 64,830.555867 64,830.003583 L64,815 C64,814.447715 64.4477153,814 65,814 Z M89,819 C89.5522847,819 90,819.447715 90,820 C90,820.552285 89.5522847,821 89,821 L85,821 L85,830.003583 C85,830.555867 84.5522847,831.003583 84,831.003583 C83.4477153,831.003583 83,830.555867 83,830.003583 L83,821 L77,821 L77,830.003583 C77,830.555867 76.5522847,831.003583 76,831.003583 C75.4477153,831.003583 75,830.555867 75,830.003583 L75,821 L71,821 C70.4477153,821 70,820.552285 70,820 C70,819.447715 70.4477153,819 71,819 L89,819 Z M95,814 C95.5522847,814 96,814.447715 96,815 L96,830.003583 C96,830.555867 95.5522847,831.003583 95,831.003583 C94.4477153,831.003583 94,830.555867 94,830.003583 L94,825 L90,825 L90,830.003583 C90,830.555867 89.5522847,831.003583 89,831.003583 C88.4477153,831.003583 88,830.555867 88,830.003583 L88,824 C88,823.447715 88.4477153,823 89,823 L94,823 L94,815 C94,814.447715 94.4477153,814 95,814 Z M84,801 C86.7614237,801 89,803.238576 89,806 L89,814 C89,814.798695 88.1098545,815.275087 87.4452998,814.83205 L85.452998,813.503849 C84.9601955,813.175314 84.3811724,813 83.7888974,813 L76,813 C73.2385763,813 71,810.761424 71,808 L71,806 C71,803.238576 73.2385763,801 76,801 L84,801 Z M84,803 L76,803 C74.3431458,803 73,804.343146 73,806 L73,808 C73,809.656854 74.3431458,811 76,811 L83.7888974,811 C84.7760224,811 85.7410608,811.29219 86.5623984,811.839749 L87,812.131 L87,806 C87,804.402319 85.75108,803.096339 84.1762728,803.005093 L84,803 Z" id="Shape"></path>
        </g>
    </g>
</svg>