<?xml version="1.0" encoding="UTF-8"?>
<svg width="50px" height="50px" viewBox="0 0 50 50" version="1.1" xmlns="http://www.w3.org/2000/svg" xmlns:xlink="http://www.w3.org/1999/xlink">
    <title>actionPaymentLoanPlansHover</title>
    <g id="v2" stroke="none" stroke-width="1" fill="none" fill-rule="evenodd">
        <g id="Group-Copy">
            <circle id="Filled" fill="#0FC992" cx="25" cy="25" r="25"></circle>
            <path d="M30.0925926,16.6666667 C34.6949655,16.6666667 38.4259259,20.3976271 38.4259259,25 C38.4259259,29.6023729 34.6949655,33.3333333 30.0925926,33.3333333 C28.1744839,33.3333333 26.4077336,32.6852909 24.9993423,31.5962065 C23.5918511,32.6854432 21.8252907,33.3333333 19.9074074,33.3333333 C15.3050345,33.3333333 11.5740741,29.6023729 11.5740741,25 C11.5740741,20.3976271 15.3050345,16.6666667 19.9074074,16.6666667 C21.8252907,16.6666667 23.5918511,17.3145568 25.000161,18.4034095 C26.4077336,17.3147091 28.1744839,16.6666667 30.0925926,16.6666667 Z M19.9074074,18.5185185 C16.327784,18.5185185 13.4259259,21.4203766 13.4259259,25 C13.4259259,28.5796234 16.327784,31.4814815 19.9074074,31.4814815 C21.3037578,31.4814815 22.5969762,31.0399209 23.6550473,30.2888149 C22.4697788,28.8509351 21.7592593,27.0084429 21.7592593,25 C21.7592593,22.9917596 22.4696355,21.1494364 23.652814,19.7106046 C22.5961664,18.9598027 21.3033206,18.5185185 19.9074074,18.5185185 Z M30.0925926,18.5185185 C28.6966525,18.5185185 27.4037838,18.9598197 26.3458855,19.710523 C27.5300349,21.1485819 28.2407407,22.9912938 28.2407407,25 C28.2407407,27.0089061 27.5298934,28.851785 26.3460093,30.2908261 C27.4037838,31.0401803 28.6966525,31.4814815 30.0925926,31.4814815 C33.672216,31.4814815 36.5740741,28.5796234 36.5740741,25 C36.5740741,21.4203766 33.672216,18.5185185 30.0925926,18.5185185 Z M25.0010115,20.9914698 L24.9395992,21.0679957 C24.1061824,22.1585499 23.6111111,23.5214599 23.6111111,25 C23.6111111,26.5133293 24.1297539,27.905523 24.9989885,29.0085302 C25.8702461,27.905523 26.3888889,26.5133293 26.3888889,25 C26.3888889,23.4866707 25.8702461,22.094477 25.0010115,20.9914698 Z" id="Combined-Shape" fill="#FFFFFF"></path>
        </g>
    </g>
</svg>