<?xml version="1.0" encoding="UTF-8"?>
<svg width="20px" height="20px" viewBox="0 0 20 20" version="1.1" xmlns="http://www.w3.org/2000/svg" xmlns:xlink="http://www.w3.org/1999/xlink">
    <title>actionPaymentPlans</title>
    <g id="v2" stroke="none" stroke-width="1" fill="none" fill-rule="evenodd">
        <g id="Round-4" transform="translate(-26.000000, -725.000000)" fill="#0EC992" fill-rule="nonzero">
            <path d="M41.5,725.5 C42.6045695,725.5 43.5,726.395431 43.5,727.5 L43.5,742.5 C43.5,743.604569 42.6045695,744.5 41.5,744.5 L30.5,744.5 C29.3954305,744.5 28.5,743.604569 28.5,742.5 L28.5,727.5 C28.5,726.395431 29.3954305,725.5 30.5,725.5 L41.5,725.5 Z M41.5,727.5 L30.5,727.5 L30.5,742.5 L41.5,742.5 L41.5,727.5 Z M36.5,738.75 C36.9142136,738.75 37.25,739.085786 37.25,739.5 C37.25,739.914214 36.9142136,740.25 36.5,740.25 L32.5,740.25 C32.0857864,740.25 31.75,739.914214 31.75,739.5 C31.75,739.085786 32.0857864,738.75 32.5,738.75 L36.5,738.75 Z M39.25,735.5 C39.8022847,735.5 40.25,735.947715 40.25,736.5 C40.25,737.052285 39.8022847,737.5 39.25,737.5 C38.6977153,737.5 38.25,737.052285 38.25,736.5 C38.25,735.947715 38.6977153,735.5 39.25,735.5 Z M36.5,735.75 C36.9142136,735.75 37.25,736.085786 37.25,736.5 C37.25,736.914214 36.9142136,737.25 36.5,737.25 L32.5,737.25 C32.0857864,737.25 31.75,736.914214 31.75,736.5 C31.75,736.085786 32.0857864,735.75 32.5,735.75 L36.5,735.75 Z M39.25,732.5 C39.8022847,732.5 40.25,732.947715 40.25,733.5 C40.25,734.052285 39.8022847,734.5 39.25,734.5 C38.6977153,734.5 38.25,734.052285 38.25,733.5 C38.25,732.947715 38.6977153,732.5 39.25,732.5 Z M36.5,732.75 C36.9142136,732.75 37.25,733.085786 37.25,733.5 C37.25,733.914214 36.9142136,734.25 36.5,734.25 L32.5,734.25 C32.0857864,734.25 31.75,733.914214 31.75,733.5 C31.75,733.085786 32.0857864,732.75 32.5,732.75 L36.5,732.75 Z M38.5,728.75 C38.9142136,728.75 39.25,729.085786 39.25,729.5 C39.25,729.914214 38.9142136,730.25 38.5,730.25 L33.5,730.25 C33.0857864,730.25 32.75,729.914214 32.75,729.5 C32.75,729.085786 33.0857864,728.75 33.5,728.75 L38.5,728.75 Z" id="Combined-Shape"></path>
        </g>
    </g>
</svg>