<?xml version="1.0" encoding="UTF-8"?>
<svg width="54px" height="54px" viewBox="0 0 54 54" version="1.1" xmlns="http://www.w3.org/2000/svg" xmlns:xlink="http://www.w3.org/1999/xlink">
    <title>Dreams_hover</title>
    <g id="v2" stroke="none" stroke-width="1" fill="none" fill-rule="evenodd">
        <g id="Round-2" transform="translate(-86, -2536)">
            <path d="M113,2536 C127.911688,2536 140,2548.08831 140,2563 C140,2577.91169 127.911688,2590 113,2590 C98.0883118,2590 86,2577.91169 86,2563 C86,2548.08831 98.0883118,2536 113,2536 Z" id="Path-Copy" fill="#0FC992" fill-rule="nonzero"></path>
            <g id="Button" transform="translate(97, 2547)" fill="#FFFFFF">
                <path d="M14.83584,24.3950222 L14.83584,28.9223822 C14.83584,29.0240711 14.7534222,29.1064889 14.6517333,29.1064889 L6.59227022,29.1064889 C6.55243378,29.1064889 6.51367111,29.0935467 6.48180622,29.0696533 L6.42120533,29.0242133 C6.41423644,29.0189511 6.40765156,29.0132622 6.40148622,29.0070756 L6.38006044,28.9856711 C2.32578844,25.9057067 0,21.2192711 0,16.1211733 C0,7.23441778 7.17084444,0 15.9848533,0 C24.8137244,0 31.9847111,7.23406222 32,16.0905956 L32,16.09088 C32,23.7208889 26.6230756,30.3716978 19.2046933,31.88992 C19.2041244,31.8899911 19.2036267,31.8901333 19.2031289,31.8902044 L18.9334756,31.9501511 C18.8789333,31.96224 18.8219022,31.9490133 18.7783111,31.9140267 C18.73472,31.8791111 18.7094044,31.8262756 18.7094044,31.7704533 L18.7094044,29.6950044 C18.7094044,29.6105244 18.7669333,29.5368533 18.8488533,29.5163733 L19.0306844,29.4709333 C19.03168,29.4706489 19.0326756,29.4704356 19.0336711,29.4701511 C21.9923911,28.7827911 24.6684444,27.0938311 26.5972622,24.7016533 C28.5403733,22.28032 29.6169244,19.21536 29.6169244,16.09088 C29.6169244,8.51043556 23.5018667,2.35278933 16,2.35278933 C8.49813333,2.35278933 2.38308978,8.51043556 2.38308978,16.09088 C2.38308978,20.1949156 4.202176,24.04736 7.40032,26.6779733 L12.4679111,26.6779733 L12.4679111,22.1506133 C12.4679111,22.0489244 12.5503289,21.9665067 12.6520178,21.9665067 L18.7094044,21.9665067 L18.7094044,17.4391467 C18.7094044,17.3375289 18.7918222,17.25504 18.8935111,17.25504 L24.6741333,17.25504 C24.8557511,16.8841244 24.9508978,16.4927289 24.9508978,16.09088 C24.9508978,15.1139556 24.4128711,14.2055822 23.5616711,13.7223111 C23.1292444,13.4919822 22.6898489,13.3663289 22.2414933,13.3663289 L22.0142933,13.3663289 C21.9126044,13.3663289 21.8301867,13.2839111 21.8301867,13.1822222 L21.8301867,12.9549511 C21.8301867,12.5096533 21.7440711,12.0456533 21.568,11.5468089 L21.5675022,11.5454578 C20.9714489,9.81553778 19.3587911,8.65493333 17.5603911,8.65493333 C16.0237511,8.65493333 14.6000356,9.51032889 13.8436267,10.89216 L13.8435556,10.8923022 C13.5965156,11.3427911 13.4369422,11.8217956 13.3644089,12.3152356 L13.3640533,12.3175111 L13.3033956,12.6962489 C13.2930844,12.76096 13.2491378,12.8152889 13.1879822,12.8388978 C13.1268267,12.8625067 13.0577778,12.85184 13.0066489,12.81088 L12.7056356,12.5700978 C12.70528,12.5698133 12.7049956,12.5696 12.70464,12.5693156 C12.3126756,12.2646756 11.8824533,12.0364089 11.4139022,11.9224889 C11.07072,11.8479644 10.7986489,11.8059378 10.5462756,11.8059378 C8.63502222,11.8059378 7.06422756,13.3879467 7.06422756,15.3334044 C7.06422756,16.0231822 7.26222222,16.6987378 7.65809778,17.2853333 L14.6517333,17.2853333 C14.7534222,17.2853333 14.83584,17.3678222 14.83584,17.4695111 L14.83584,19.4843022 C14.83584,19.5859911 14.7534222,19.66848 14.6517333,19.66848 L6.63772444,19.66848 C6.58889244,19.66848 6.54205867,19.6490667 6.50753422,19.6145067 L6.44799289,19.5549867 C5.96108089,19.08352 5.57048889,18.5197511 5.25954844,17.8667378 L5.25860978,17.8647467 C4.88496356,17.0552178 4.68113778,16.1957689 4.68113778,15.3334044 C4.68113778,12.0822756 7.30709333,9.42286222 10.5462756,9.42286222 C10.9634133,9.42286222 11.37856,9.47548444 11.8486044,9.59061333 C13.0337422,7.53066667 15.2063289,6.27181511 17.5452444,6.27181511 C20.55296,6.27181511 23.2362667,8.39075556 23.9726933,11.3309156 C25.9780978,12.0790044 27.30368,13.9857067 27.30368,16.1211733 C27.30368,16.6916267 27.1925333,17.2423111 26.9907911,17.8320356 L26.81728,17.7726578 L26.9908622,17.8319644 L26.9907911,17.8320356 C26.7704889,18.4771556 26.4250311,19.0420622 25.9883378,19.5419022 L25.93024,19.6145067 C25.8952533,19.6581689 25.8424178,19.6836267 25.7864533,19.6836267 L21.0621867,19.6836267 L21.0621867,24.2109156 C21.0621867,24.3126044 20.9797689,24.3950222 20.87808,24.3950222 L14.83584,24.3950222 Z" id="Path"></path>
            </g>
        </g>
    </g>
</svg>