<?xml version="1.0" encoding="UTF-8"?>
<svg width="54px" height="54px" viewBox="0 0 54 54" version="1.1" xmlns="http://www.w3.org/2000/svg" xmlns:xlink="http://www.w3.org/1999/xlink">
    <title>iconVideoplay</title>
    <g id="v2" stroke="none" stroke-width="1" fill="none" fill-rule="evenodd">
        <g id="Round-2" transform="translate(-20, -2388)" fill="#FFFFFF">
            <path d="M47,2388 C61.9116882,2388 74,2400.08831 74,2415 C74,2429.91169 61.9116882,2442 47,2442 C32.0883118,2442 20,2429.91169 20,2415 C20,2400.08831 32.0883118,2388 47,2388 Z M47,2390 C33.1928813,2390 22,2401.19288 22,2415 C22,2428.80712 33.1928813,2440 47,2440 C60.8071187,2440 72,2428.80712 72,2415 C72,2401.19288 60.8071187,2390 47,2390 Z" id="Oval" transform="translate(47, 2415) scale(1, -1) translate(-47, -2415)"></path>
            <path d="M42.4902612,2406.83827 L55.4505324,2414.12842 C55.9318903,2414.39919 56.1026105,2415.0089 55.8318467,2415.49026 C55.7420579,2415.64989 55.6101569,2415.78179 55.4505324,2415.87158 L42.4902612,2423.16173 C42.0089034,2423.43249 41.3991883,2423.26177 41.1284245,2422.78041 C41.0442285,2422.63073 41,2422.46189 41,2422.29015 L41,2407.70985 C41,2407.15756 41.4477153,2406.70985 42,2406.70985 C42.1717369,2406.70985 42.3405796,2406.75408 42.4902612,2406.83827 Z" id="Rectangle"></path>
        </g>
    </g>
</svg>