<?xml version="1.0" encoding="UTF-8"?>
<svg width="54px" height="54px" viewBox="0 0 54 54" version="1.1" xmlns="http://www.w3.org/2000/svg" xmlns:xlink="http://www.w3.org/1999/xlink">
    <title>iconMessage</title>
    <g id="v2" stroke="none" stroke-width="1" fill="none" fill-rule="evenodd">
        <g id="Round-2" transform="translate(-20, -2462)" fill="#0FC992" fill-rule="nonzero">
            <path d="M54.5,2477 C56.9852814,2477 59,2479.01472 59,2481.5 C59,2482.18693 58.8460806,2482.83792 58.5708486,2483.42035 C59.4834171,2484.78561 60,2486.34042 60,2488 C60,2493.59556 54.127417,2498 47,2498 C46.4797063,2498 45.9632052,2497.9766 45.452393,2497.93022 L45.128,2497.896 L44.9944116,2498.0911 C43.6247341,2499.99171 41.0518259,2500.93601 37.3833962,2500.99685 L37,2501 L36.188,2499.375 L36.3578652,2499.23341 C37.5547547,2498.23083 38.4099012,2497.21918 38.9351973,2496.20193 L39.067,2495.93 L38.9852301,2495.88255 C35.9850779,2494.08115 34.1157299,2491.32944 34.0051911,2488.28614 L34,2488 C34,2482.40444 39.872583,2478 47,2478 C48.4421536,2478 49.8329329,2478.18032 51.1340849,2478.51435 C51.9578283,2477.58519 53.1605744,2477 54.5,2477 Z M47,2480 C40.872583,2480 36,2483.65444 36,2488 C36,2490.62283 37.780582,2493.07557 40.759022,2494.57789 L41.5076912,2494.95551 C41.2710111,2495.69823 40.9580785,2496.4065 40.5688935,2497.08034 C40.1797084,2497.75418 39.5939474,2498.47187 38.8116104,2499.23341 C41.2478912,2499.23341 43.0904468,2498.07843 44.3392772,2495.76848 L44.7412132,2495.82994 C45.4784009,2495.94266 46.2339653,2496 47,2496 C53.127417,2496 58,2492.34556 58,2488 C58,2486.97355 57.7281406,2485.98566 57.2320995,2485.07538 C56.4747177,2485.65557 55.5275813,2486 54.5,2486 C52.0147186,2486 50,2483.98528 50,2481.5 C50,2481.09702 50.0529699,2480.70641 50.152327,2480.33476 C49.1562248,2480.1174 48.0982691,2480 47,2480 Z M54.5,2479 C53.1192881,2479 52,2480.11929 52,2481.5 C52,2482.88071 53.1192881,2484 54.5,2484 C55.8807119,2484 57,2482.88071 57,2481.5 C57,2480.11929 55.8807119,2479 54.5,2479 Z" id="Shape"></path>
            <path d="M47,2462 C61.9116882,2462 74,2474.08831 74,2489 C74,2503.91169 61.9116882,2516 47,2516 C32.0883118,2516 20,2503.91169 20,2489 C20,2474.08831 32.0883118,2462 47,2462 Z M47,2464 C33.1928813,2464 22,2475.19288 22,2489 C22,2502.80712 33.1928813,2514 47,2514 C60.8071187,2514 72,2502.80712 72,2489 C72,2475.19288 60.8071187,2464 47,2464 Z" id="Oval"></path>
        </g>
    </g>
</svg>