<?xml version="1.0" encoding="UTF-8"?>
<svg width="50px" height="50px" viewBox="0 0 50 50" version="1.1" xmlns="http://www.w3.org/2000/svg" xmlns:xlink="http://www.w3.org/1999/xlink">
    <title>iconBlock_hover</title>
    <g id="v2" stroke="none" stroke-width="1" fill="none" fill-rule="evenodd">
        <g id="Group-5">
            <circle id="Filled" fill="#0FC992" cx="25" cy="25" r="25"></circle>
            <path d="M25,12.037037 C32.1592468,12.037037 37.962963,17.8407532 37.962963,25 C37.962963,32.1592468 32.1592468,37.962963 25,37.962963 C17.8407532,37.962963 12.037037,32.1592468 12.037037,25 C12.037037,17.8407532 17.8407532,12.037037 25,12.037037 Z M33.4842667,17.8250962 L17.8250962,33.4842667 C19.7609203,35.1229856 22.2650656,36.1111111 25,36.1111111 C31.1364972,36.1111111 36.1111111,31.1364972 36.1111111,25 C36.1111111,22.2650656 35.1229856,19.7609203 33.4842667,17.8250962 Z M25,13.8888889 C18.8635028,13.8888889 13.8888889,18.8635028 13.8888889,25 C13.8888889,27.7349344 14.8770144,30.2390797 16.5157333,32.1749038 L32.1749038,16.5157333 C30.2390797,14.8770144 27.7349344,13.8888889 25,13.8888889 Z M31.9444444,21.7592593 L31.9444444,28.0925926 C31.9444444,29.1971621 31.0490139,30.0925926 29.9444444,30.0925926 L23.6111111,30.0925926 L23.611037,29.544037 L24.915037,28.240037 L30.0925926,28.2407407 L30.092037,23.063037 L31.396037,21.759037 L31.9444444,21.7592593 Z M26.3888889,19.9074074 L26.388037,20.445037 L25.074037,21.758037 L19.9074074,21.7592593 L19.906037,26.926037 L18.592037,28.240037 L18.0555556,28.2407407 L18.0555556,21.9074074 C18.0555556,20.8028379 18.9509861,19.9074074 20.0555556,19.9074074 L26.3888889,19.9074074 Z" id="Combined-Shape" fill="#FFFFFF"></path>
        </g>
    </g>
</svg>