<?xml version="1.0" encoding="UTF-8"?>
<svg width="54px" height="54px" viewBox="0 0 54 54" version="1.1" xmlns="http://www.w3.org/2000/svg" xmlns:xlink="http://www.w3.org/1999/xlink">
    <title>iconMessage_hover</title>
    <g id="v2" stroke="none" stroke-width="1" fill="none" fill-rule="evenodd">
        <g id="Round-2" transform="translate(-86, -2462)" fill-rule="nonzero">
            <path d="M113,2462 C127.911688,2462 140,2474.08831 140,2489 C140,2503.91169 127.911688,2516 113,2516 C98.0883118,2516 86,2503.91169 86,2489 C86,2474.08831 98.0883118,2462 113,2462 Z" id="Path" fill="#0FC992"></path>
            <path d="M120.5,2477 C122.985281,2477 125,2479.01472 125,2481.5 C125,2482.18693 124.846081,2482.83792 124.570849,2483.42035 C125.483417,2484.78561 126,2486.34042 126,2488 C126,2493.59556 120.127417,2498 113,2498 C112.479706,2498 111.963205,2497.9766 111.452393,2497.93022 L111.128,2497.896 L110.994412,2498.0911 C109.624734,2499.99171 107.051826,2500.93601 103.383396,2500.99685 L103,2501 L102.188,2499.375 L102.357865,2499.23341 C103.554755,2498.23083 104.409901,2497.21918 104.935197,2496.20193 L105.067,2495.93 L104.98523,2495.88255 C101.985078,2494.08115 100.11573,2491.32944 100.005191,2488.28614 L100,2488 C100,2482.40444 105.872583,2478 113,2478 C114.442154,2478 115.832933,2478.18032 117.134085,2478.51435 C117.957828,2477.58519 119.160574,2477 120.5,2477 Z M113,2480 C106.872583,2480 102,2483.65444 102,2488 C102,2490.62283 103.780582,2493.07557 106.759022,2494.57789 L107.507691,2494.95551 C107.271011,2495.69823 106.958079,2496.4065 106.568893,2497.08034 C106.179708,2497.75418 105.593947,2498.47187 104.81161,2499.23341 C107.247891,2499.23341 109.090447,2498.07843 110.339277,2495.76848 L110.741213,2495.82994 C111.478401,2495.94266 112.233965,2496 113,2496 C119.127417,2496 124,2492.34556 124,2488 C124,2486.97355 123.728141,2485.98566 123.2321,2485.07538 C122.474718,2485.65557 121.527581,2486 120.5,2486 C118.014719,2486 116,2483.98528 116,2481.5 C116,2481.09702 116.05297,2480.70641 116.152327,2480.33476 C115.156225,2480.1174 114.098269,2480 113,2480 Z M120.5,2479 C119.119288,2479 118,2480.11929 118,2481.5 C118,2482.88071 119.119288,2484 120.5,2484 C121.880712,2484 123,2482.88071 123,2481.5 C123,2480.11929 121.880712,2479 120.5,2479 Z" id="Shape" fill="#FFFFFF"></path>
        </g>
    </g>
</svg>