
<svg width="14px" height="14px" viewBox="0 0 14 14" version="1.1" xmlns="http://www.w3.org/2000/svg" xmlns:xlink="http://www.w3.org/1999/xlink">
    <g id="v2" stroke="none" stroke-width="1" fill="none" fill-rule="evenodd">
        <g id="Round-3" transform="translate(-201.000000, -609.000000)" fill="#ACACAC" fill-rule="nonzero">
            <g id="Group" transform="translate(201.000000, 609.875000)">
                <path d="M12.6875,8.75 L11.8125,8.75 C11.0876263,8.75 10.5,8.162374 10.5,7.4375 C10.5,6.712626 11.0876263,6.125 11.8125,6.125 L12.6875,6.125 L12.6875,4.375 C12.6875,4.133375 12.4916246,3.9375 12.25,3.9375 L1.3125,3.9375 L1.3125,10.5 C1.3125,10.741625 1.5083754,10.9375 1.75,10.9375 L12.25,10.9375 C12.4916246,10.9375 12.6875,10.741625 12.6875,10.5 L12.6875,8.75 Z M1.3125,2.625 L12.25,2.625 C13.2164983,2.625 14,3.408502 14,4.375 L14,10.5 C14,11.466498 13.2164983,12.25 12.25,12.25 L1.75,12.25 C0.7835017,12.25 0,11.466498 0,10.5 L0,1.75 C0,0.783502 0.7835017,0 1.75,0 L10.5,0 C11.3154298,0 12.0005986,0.557713 12.1948674,1.3125 L1.75,1.3125 C1.5083754,1.3125 1.3125,1.508375 1.3125,1.75 L1.3125,2.625 Z" id="Shape"></path>
            </g>
        </g>
    </g>
</svg>