<?xml version="1.0" encoding="UTF-8"?>
<svg width="22px" height="22px" viewBox="0 0 22 22" version="1.1" xmlns="http://www.w3.org/2000/svg" xmlns:xlink="http://www.w3.org/1999/xlink">
    <title>iconDisabled</title>
    <g id="v2" stroke="none" stroke-width="1" fill="none" fill-rule="evenodd">
        <g id="Round-3" transform="translate(-69.000000, -701.000000)" fill="#ACACAC" fill-rule="nonzero">
            <path d="M80,701 C86.072,701 91,705.928 91,712 C91,718.072 86.072,723 80,723 C73.928,723 69,718.072 69,712 C69,705.928 73.928,701 80,701 Z M87.1636097,706.558662 L74.5586624,719.16361 C76.0710696,720.315373 77.9573462,721 80,721 C84.96125,721 89,716.96125 89,712 C89,709.957346 88.3153726,708.07107 87.1636097,706.558662 Z M80,703 C75.03875,703 71,707.03875 71,712 C71,714.019848 71.6694256,715.886792 72.7979884,717.390542 L85.3905419,704.797988 C83.8867919,703.669426 82.0198485,703 80,703 Z" id="Shape"></path>
        </g>
    </g>
</svg>