<?xml version="1.0" encoding="UTF-8"?>
<svg width="54px" height="54px" viewBox="0 0 54 54" version="1.1" xmlns="http://www.w3.org/2000/svg" xmlns:xlink="http://www.w3.org/1999/xlink">
    <title>iconVideoplay_hover</title>
    <g id="v2" stroke="none" stroke-width="1" fill="none" fill-rule="evenodd">
        <g id="Round-2" transform="translate(-86, -2388)">
            <path d="M113,2388 C127.911688,2388 140,2400.08831 140,2415 C140,2429.91169 127.911688,2442 113,2442 C98.0883118,2442 86,2429.91169 86,2415 C86,2400.08831 98.0883118,2388 113,2388 Z" id="Path" fill="#0FC992" fill-rule="nonzero" transform="translate(113, 2415) scale(1, -1) translate(-113, -2415)"></path>
            <path d="M108.490261,2406.83827 L121.450532,2414.12842 C121.93189,2414.39919 122.10261,2415.0089 121.831847,2415.49026 C121.742058,2415.64989 121.610157,2415.78179 121.450532,2415.87158 L108.490261,2423.16173 C108.008903,2423.43249 107.399188,2423.26177 107.128424,2422.78041 C107.044229,2422.63073 107,2422.46189 107,2422.29015 L107,2407.70985 C107,2407.15756 107.447715,2406.70985 108,2406.70985 C108.171737,2406.70985 108.34058,2406.75408 108.490261,2406.83827 Z" id="Rectangle" fill="#FFFFFF"></path>
        </g>
    </g>
</svg>