
<svg width="20px" height="20px" viewBox="0 0 20 20" version="1.1" xmlns="http://www.w3.org/2000/svg" xmlns:xlink="http://www.w3.org/1999/xlink">
    <g id="v2" stroke="none" stroke-width="1" fill="none" fill-rule="evenodd">
        <g id="Round-3" transform="translate(-118.000000, -183.000000)" fill="#ACACAC" fill-rule="nonzero">
            <path d="M119.666,183 L119.666667,198.555556 C119.666667,199.782855 120.412859,200.777778 121.333333,200.777778 L138,200.777 L138,203 L121.333333,203 C119.492384,203 118,201.010154 118,198.555556 L118,183 L119.666,183 Z M136.577411,185.547659 C136.902848,185.113743 137.430485,185.113743 137.755922,185.547659 C138.081359,185.981575 138.081359,186.685092 137.755922,187.119008 L130.5,196.793571 L128,193.460237 L124.666667,197.904682 L121.577411,193.785674 C121.251974,193.351758 121.251974,192.648242 121.577411,192.214326 C121.902848,191.78041 122.430485,191.78041 122.755922,192.214326 L124.666667,194.761985 L128,190.31754 L130.5,193.650874 Z" id="Combined-Shape"></path>
        </g>
    </g>
</svg>